<svg width="472" height="61" viewBox="0 0 472 61" fill="none" xmlns="http://www.w3.org/2000/svg">
<path d="M0 25.81C1.40605 23.3145 2.18727 21.5528 3.20275 20.3784C8.20204 14.2129 13.2793 8.19408 18.2786 2.02849C20.5439 -0.6139 22.7312 -1.2011 24.2935 3.49649C25.9339 8.34088 23.5905 10.2493 21.9501 12.3045C19.9973 14.6533 18.0444 17.002 16.0916 19.3508C12.1077 24.1952 12.1077 26.1036 16.0916 31.0948C18.2787 33.7372 20.622 35.9392 22.5749 39.022C23.5903 40.6368 23.8248 43.8664 24.4497 46.362C23.1999 47.3896 21.95 48.7107 20.7002 49.4447C20.1534 49.7383 19.2942 49.298 18.7474 48.564C12.7326 41.3708 6.7178 34.0308 0 25.81Z" fill="#7B7BC2"/>
<path d="M192.495 31.4625C193.901 28.9669 194.682 27.2053 195.697 26.0309C200.697 19.8653 205.774 13.8465 210.773 7.68096C213.038 5.03857 215.226 4.45137 216.788 9.14895C218.428 13.9933 216.085 15.9017 214.445 17.9569C212.492 20.3057 210.539 22.6545 208.586 25.0033C204.602 29.8477 204.602 31.7561 208.586 36.7473C210.773 39.3897 213.117 41.5917 215.069 44.6745C216.085 46.2893 216.319 49.5189 216.944 52.0145C215.694 53.0421 214.445 54.3632 213.195 55.0972C212.648 55.3908 211.789 54.9504 211.242 54.2164C205.227 47.0233 199.212 39.6833 192.495 31.4625Z" fill="#7B7BC2"/>
<path d="M127.327 31.4625C128.733 28.9669 129.515 27.2053 130.53 26.0309C135.529 19.8653 140.607 13.8465 145.606 7.68096C147.871 5.03857 150.059 4.45137 151.621 9.14895C153.261 13.9933 150.918 15.9017 149.277 17.9569C147.325 20.3057 145.372 22.6545 143.419 25.0033C139.435 29.8477 139.435 31.7561 143.419 36.7473C145.606 39.3897 147.949 41.5917 149.902 44.6745C150.918 46.2893 151.152 49.5189 151.777 52.0145C150.527 53.0421 149.277 54.3632 148.027 55.0972C147.481 55.3908 146.621 54.9504 146.075 54.2164C140.06 47.0233 134.045 39.6833 127.327 31.4625Z" fill="#7B7BC2"/>
<path d="M65.1673 25.8102C66.5733 23.3146 67.3546 21.553 68.37 20.3786C73.3693 14.213 78.4466 8.1942 83.4459 2.02861C85.7112 -0.613778 87.8985 -1.20098 89.4608 3.49661C91.1012 8.341 88.7578 10.2494 87.1174 12.3046C85.1646 14.6534 83.2117 17.0022 81.2589 19.3509C77.275 24.1953 77.275 26.1037 81.2589 31.0949C83.446 33.7373 85.7893 35.9393 87.7422 39.0221C88.7576 40.6369 88.9921 43.8665 89.617 46.3621C88.3672 47.3897 87.1173 48.7109 85.8675 49.4449C85.3207 49.7385 84.4615 49.2981 83.9147 48.5641C77.8999 41.3709 71.8851 34.0309 65.1673 25.8102Z" fill="#7B7BC2"/>
<path d="M254.654 31.4625C256.061 28.9669 256.842 27.2053 257.857 26.0309C262.857 19.8653 267.934 13.8465 272.933 7.68096C275.198 5.03857 277.386 4.45137 278.948 9.14895C280.588 13.9933 278.245 15.9017 276.605 17.9569C274.652 20.3057 272.699 22.6545 270.746 25.0033C266.762 29.8477 266.762 31.7561 270.746 36.7473C272.933 39.3897 275.276 41.5917 277.229 44.6745C278.245 46.2893 278.479 49.5189 279.104 52.0145C277.854 53.0421 276.605 54.3632 275.355 55.0972C274.808 55.3908 273.949 54.9504 273.402 54.2164C267.387 47.0233 261.372 39.6833 254.654 31.4625Z" fill="#7B7BC2"/>
<path d="M447.149 37.1149C448.555 34.6193 449.336 32.8576 450.352 31.6833C455.351 25.5177 460.428 19.4989 465.428 13.3333C467.693 10.6909 469.88 10.1037 471.443 14.8013C473.083 19.6457 470.74 21.5541 469.099 23.6093C467.146 25.9581 465.193 28.3068 463.241 30.6556C459.257 35.5 459.257 37.4084 463.241 42.3996C465.428 45.042 467.771 47.244 469.724 50.3268C470.739 51.9416 470.974 55.1712 471.599 57.6668C470.349 58.6944 469.099 60.0156 467.849 60.7496C467.302 61.0432 466.443 60.6028 465.896 59.8688C459.882 52.6756 453.867 45.3356 447.149 37.1149Z" fill="#7B7BC2"/>
<path d="M381.982 31.4625C383.388 28.9669 384.169 27.2053 385.184 26.0309C390.184 19.8653 395.261 13.8465 400.26 7.68096C402.526 5.03857 404.713 4.45137 406.275 9.14895C407.916 13.9933 405.572 15.9017 403.932 17.9569C401.979 20.3057 400.026 22.6545 398.073 25.0033C394.089 29.8477 394.089 31.7561 398.073 36.7473C400.26 39.3897 402.604 41.5917 404.557 44.6745C405.572 46.2893 405.807 49.5189 406.431 52.0145C405.182 53.0421 403.932 54.3632 402.682 55.0972C402.135 55.3908 401.276 54.9504 400.729 54.2164C394.714 47.0233 388.7 39.6833 381.982 31.4625Z" fill="#7B7BC2"/>
<path d="M319.822 31.4625C321.228 28.9669 322.009 27.2053 323.025 26.0309C328.024 19.8653 333.101 13.8465 338.1 7.68096C340.366 5.03857 342.553 4.45137 344.115 9.14895C345.756 13.9933 343.412 15.9017 341.772 17.9569C339.819 20.3057 337.866 22.6545 335.913 25.0033C331.93 29.8477 331.93 31.7561 335.913 36.7473C338.101 39.3897 340.444 41.5917 342.397 44.6745C343.412 46.2893 343.647 49.5189 344.271 52.0145C343.022 53.0421 341.772 54.3632 340.522 55.0972C339.975 55.3908 339.116 54.9504 338.569 54.2164C332.554 47.0233 326.54 39.6833 319.822 31.4625Z" fill="#7B7BC2"/>
</svg>
