<svg width="553" height="699" viewBox="0 0 553 699" fill="none" xmlns="http://www.w3.org/2000/svg">
<path d="M11.9753 178.374C-55.959 -2.83226 195.695 -21.2768 377.306 33.4379C483.267 61.577 552.854 -25.9334 684.12 8.99087C815.386 43.9152 658.025 153.927 858.878 210.388C1059.73 266.849 961.676 519.468 786.128 522.378C610.579 525.288 658.815 567.78 483.267 664.986C307.719 762.192 11.9757 627.151 85.5161 484.543C159.057 341.936 85.5153 374.532 11.9753 178.374Z" stroke="#7B7BC2" stroke-opacity="0.5" stroke-width="1.2494"/>
<path d="M389.797 319.396C381.958 302.138 418.672 274.295 448.194 286.177C475.227 297.058 502.756 289.72 520.943 294.571C568.824 307.341 551.212 314.101 572.616 329.268C598.661 347.725 611.09 396.054 551.212 396.054C501.965 396.054 516.7 413.661 479.824 421.462C442.947 429.263 401.127 415.984 401.127 381.023C401.127 367.894 402.852 348.141 389.797 319.396Z" stroke="#7B7BC2" stroke-opacity="0.5" stroke-width="1.2494"/>
<path d="M46.318 190.314C-16.153 24.0121 215.961 4.71313 383.745 55.534C482.532 82.1042 548.295 1.88212 669.281 34.0725C792.966 66.9828 648.31 167.608 832.849 220.315C1017.81 273.321 929.8 507.368 764.767 510.014C600.701 512.66 645.891 552.889 482.95 641.967C320.008 731.045 47.3484 607.074 114.203 474.252C181.058 343.415 114.359 371.252 46.318 190.314Z" stroke="#7B7BC2" stroke-opacity="0.5" stroke-width="1.2494"/>
<path d="M80.6609 202.254C23.6531 50.8567 236.227 30.7033 390.185 77.6304C481.796 102.632 543.736 29.6979 654.442 59.1543C770.547 90.0507 638.595 181.289 806.821 230.242C975.89 279.793 897.924 495.269 743.406 497.65C590.822 500.031 632.967 537.998 482.632 618.948C332.297 699.899 82.7212 586.997 142.891 463.961C203.06 344.895 143.204 367.973 80.6609 202.254Z" stroke="#7B7BC2" stroke-opacity="0.5" stroke-width="1.2494"/>
<path d="M115.003 214.195C63.459 77.7018 256.493 56.6941 396.625 99.7273C481.061 123.16 539.177 57.5142 639.603 84.2367C748.128 113.119 628.88 194.971 780.792 240.17C933.97 286.266 866.047 483.17 722.046 485.287C580.943 487.403 620.043 523.108 482.314 595.931C344.585 668.753 118.094 566.92 171.578 453.671C225.062 346.376 172.048 364.695 115.003 214.195Z" stroke="#7B7BC2" stroke-opacity="0.5" stroke-width="1.2494"/>
<path d="M149.347 226.137C103.266 104.548 276.76 82.6862 403.065 121.826C480.326 143.689 534.618 85.332 624.765 109.321C725.709 136.189 619.166 208.654 754.764 250.1C892.051 292.741 834.172 471.072 700.686 472.924C571.065 474.777 607.119 508.219 481.997 572.914C356.875 637.609 153.467 546.845 200.266 443.382C247.064 347.857 200.892 361.418 149.347 226.137Z" stroke="#7B7BC2" stroke-opacity="0.5" stroke-width="1.2494"/>
<path d="M183.691 238.684C143.073 132 297.027 109.283 409.506 144.529C479.591 164.823 530.06 113.755 609.927 135.009C703.29 159.864 609.452 222.943 728.737 260.634C850.132 299.82 802.297 459.58 679.326 461.167C561.187 462.755 594.196 493.935 481.68 550.502C369.165 607.07 188.841 527.375 228.954 433.698C269.067 349.944 229.737 358.745 183.691 238.684Z" stroke="#7B7BC2" stroke-opacity="0.5" stroke-width="1.2494"/>
<path d="M218.035 251.947C182.88 160.167 317.294 136.596 415.947 167.947C478.857 186.673 525.503 142.893 595.09 161.413C680.873 184.254 599.738 237.946 702.71 271.883C808.213 307.615 770.422 448.803 657.967 450.126C551.31 451.449 581.273 480.366 481.364 528.806C381.455 577.246 224.215 508.621 257.643 424.729C291.07 352.746 258.583 356.789 218.035 251.947Z" stroke="#7B7BC2" stroke-opacity="0.5" stroke-width="1.2494"/>
<path d="M252.38 265.249C222.689 188.373 337.563 163.948 422.389 191.406C478.124 208.562 520.946 172.07 580.253 187.857C658.456 208.684 590.026 252.99 676.684 283.173C766.296 315.449 738.548 438.065 636.609 439.124C541.434 440.182 568.351 466.838 481.049 507.15C393.746 547.462 259.59 489.906 286.332 415.8C313.074 355.588 287.43 354.872 252.38 265.249Z" stroke="#7B7BC2" stroke-opacity="0.5" stroke-width="1.2494"/>
<path d="M286.726 278.609C262.498 216.637 357.832 191.357 428.832 214.921C477.392 230.509 516.391 201.306 565.418 214.358C636.04 233.171 580.314 268.09 650.659 294.52C724.379 323.341 706.676 427.386 615.251 428.179C531.559 428.973 555.431 453.366 480.735 485.551C406.039 517.735 294.966 471.248 315.023 406.929C335.079 358.488 316.277 353.012 286.726 278.609Z" stroke="#7B7BC2" stroke-opacity="0.5" stroke-width="1.2494"/>
<path d="M321.075 292.053C302.31 244.986 378.104 218.852 435.278 238.522C476.662 252.541 511.838 230.625 550.585 240.944C613.626 257.743 570.606 283.276 624.636 305.951C682.465 331.317 674.806 416.79 593.897 417.32C521.686 417.849 542.513 439.98 480.423 464.036C418.334 488.093 330.345 452.675 343.716 398.142C357.087 361.472 345.127 351.237 321.075 292.053Z" stroke="#7B7BC2" stroke-opacity="0.5" stroke-width="1.2494"/>
<path d="M355.429 305.625C342.128 273.462 398.381 246.474 441.729 262.25C475.938 274.7 507.29 260.073 535.757 267.658C591.218 282.443 560.902 298.589 598.619 317.51C640.556 339.422 642.941 406.323 572.548 406.587C511.819 406.852 529.6 426.721 480.117 442.65C430.634 458.578 365.73 434.23 372.415 389.483C379.101 364.583 373.983 349.59 355.429 305.625Z" stroke="#7B7BC2" stroke-opacity="0.5" stroke-width="1.2494"/>
</svg>
