<svg width="502" height="41" viewBox="0 0 502 41" fill="none" xmlns="http://www.w3.org/2000/svg">
<path d="M0.759338 20.1142L2.04434 21.6138L3.32934 23.1041L4.61434 24.576L5.89934 26.0204L7.18434 27.4285L8.46934 28.7913L9.75434 30.1008L11.0393 31.3485L12.3243 32.5272L13.6093 33.6291L14.8943 34.6479L16.1793 35.577L17.4643 36.4108L18.7493 37.1441L20.0343 37.7724L21.3193 38.2918L22.6043 38.6992L23.8893 38.992L25.1743 39.1683L26.4593 39.2273L27.7443 39.1683L29.0293 38.992L30.3143 38.6992L31.5993 38.2918L32.8843 37.7724L34.1693 37.1441L35.4543 36.4108L36.7393 35.577L38.0243 34.6479L39.3093 33.6291L40.5943 32.5272L41.8793 31.3485L43.1643 30.1008L44.4493 28.7913L45.7343 27.4285L47.0193 26.0204L48.3043 24.576L49.5893 23.1041L50.8743 21.6138L52.1593 20.1142L53.4443 18.6145L54.7293 17.1242L56.0143 15.6523L57.2993 14.2079L58.5843 12.7999L59.8693 11.437L61.1543 10.1275L62.4393 8.87978L63.7243 7.70113L65.0093 6.59919L66.2943 5.58042L67.5793 4.65136L68.8643 3.81755L70.1493 3.08424L71.4343 2.45593L72.7193 1.93651L74.0043 1.52914L75.2893 1.23634L76.5743 1.06001L77.8593 1.00104L79.1443 1.06001L80.4293 1.23634L81.7143 1.52914L82.9993 1.93651L84.2843 2.45593L85.5693 3.08424L86.8543 3.81755L88.1393 4.65136L89.4243 5.58042L90.7093 6.59919L91.9943 7.70113L93.2793 8.87978L94.5643 10.1275L95.8493 11.437L97.1343 12.7999L98.4193 14.2079L99.7043 15.6523L100.989 17.1242L102.274 18.6145L103.559 20.1142L104.844 21.6138L106.129 23.1041L107.414 24.576L108.699 26.0204L109.984 27.4285L111.269 28.7913L112.554 30.1008L113.839 31.3485L115.124 32.5272L116.409 33.6291L117.694 34.6479L118.979 35.577L120.264 36.4108L121.549 37.1441L122.834 37.7724L124.119 38.2918L125.404 38.6992L126.689 38.992L127.974 39.1683L129.259 39.2273L130.544 39.1683L131.829 38.992L133.114 38.6992L134.399 38.2918L135.684 37.7724L136.969 37.1441L138.254 36.4108L139.539 35.577L140.824 34.6479L142.109 33.6291L143.394 32.5272L144.679 31.3485L145.964 30.1008L147.249 28.7913L148.534 27.4285L149.819 26.0204L151.104 24.576L152.389 23.1041L153.674 21.6138L154.959 20.1142L156.244 18.6145L157.529 17.1242L158.814 15.6523L160.099 14.2079L161.384 12.7999L162.669 11.437L163.954 10.1275L165.239 8.87978L166.524 7.70113L167.809 6.59919L169.094 5.58042L170.379 4.65136L171.664 3.81755L172.949 3.08424L174.234 2.45593L175.519 1.93651L176.804 1.52914L178.089 1.23634L179.374 1.06001L180.659 1.00104L181.944 1.06001L183.229 1.23634L184.514 1.52914L185.799 1.93651L187.084 2.45593L188.369 3.08424L189.654 3.81755L190.939 4.65136L192.224 5.58042L193.509 6.59919L194.794 7.70113L196.079 8.87978L197.364 10.1275L198.649 11.437L199.934 12.7999L201.219 14.2079L202.504 15.6523L203.789 17.1242L205.074 18.6145L206.359 20.1142L207.644 21.6138L208.929 23.1041L210.214 24.576L211.499 26.0204L212.784 27.4285L214.069 28.7913L215.354 30.1008L216.639 31.3485L217.924 32.5272L219.209 33.6291L220.494 34.6479L221.779 35.577L223.064 36.4108L224.349 37.1441L225.634 37.7724L226.919 38.2918L228.204 38.6992L229.489 38.992L230.774 39.1683L232.059 39.2273L233.344 39.1683L234.629 38.992L235.914 38.6992L237.199 38.2918L238.484 37.7724L239.769 37.1441L241.054 36.4108L242.339 35.577L243.624 34.6479L244.909 33.6291L246.194 32.5272L247.479 31.3485L248.764 30.1008L250.049 28.7913L251.334 27.4285L252.619 26.0204L253.904 24.576L255.189 23.1041L256.474 21.6138L257.759 20.1142L259.044 18.6145L260.329 17.1242L261.614 15.6523L262.899 14.2079L264.184 12.7999L265.469 11.437L266.754 10.1275L268.039 8.87978L269.324 7.70113L270.609 6.59919L271.894 5.58042L273.179 4.65136L274.464 3.81755L275.749 3.08424L277.034 2.45593L278.319 1.93651L279.604 1.52914L280.889 1.23634L282.174 1.06001L283.459 1.00104L284.744 1.06001L286.029 1.23634L287.314 1.52914L288.599 1.93651L289.884 2.45593L291.169 3.08424L292.454 3.81755L293.739 4.65136L295.024 5.58042L296.309 6.59919L297.594 7.70113L298.879 8.87978L300.164 10.1275L301.449 11.437L302.734 12.7999L304.019 14.2079L305.304 15.6523L306.589 17.1242L307.874 18.6145L309.159 20.1142L310.444 21.6138L311.729 23.1041L313.014 24.576L314.299 26.0204L315.584 27.4285L316.869 28.7913L318.154 30.1008L319.439 31.3485L320.724 32.5272L322.009 33.6291L323.294 34.6479L324.579 35.577L325.864 36.4108L327.149 37.1441L328.434 37.7724L329.719 38.2918L331.004 38.6992L332.289 38.992L333.574 39.1683L334.859 39.2273L336.144 39.1683L337.429 38.992L338.714 38.6992L339.999 38.2918L341.284 37.7724L342.569 37.1441L343.854 36.4108L345.139 35.577L346.424 34.6479L347.709 33.6291L348.994 32.5272L350.279 31.3485L351.564 30.1008L352.849 28.7913L354.134 27.4285L355.419 26.0204L356.704 24.576L357.989 23.1041L359.274 21.6138L360.559 20.1142L361.844 18.6145L363.129 17.1242L364.414 15.6523L365.699 14.2079L366.984 12.7999L368.269 11.437L369.554 10.1275L370.839 8.87978L372.124 7.70113L373.409 6.59919L374.694 5.58042L375.979 4.65136L377.264 3.81755L378.549 3.08424L379.834 2.45593L381.119 1.93651L382.404 1.52914L383.689 1.23634L384.974 1.06001L386.259 1.00104L387.544 1.06001L388.829 1.23634L390.114 1.52914L391.399 1.93651L392.684 2.45593L393.969 3.08424L395.254 3.81755L396.539 4.65136L397.824 5.58042L399.109 6.59919L400.394 7.70113L401.679 8.87978L402.964 10.1275L404.249 11.437L405.534 12.7999L406.819 14.2079L408.104 15.6523L409.389 17.1242L410.674 18.6145L411.959 20.1142L413.244 21.6138L414.529 23.1041L415.814 24.576L417.099 26.0204L418.384 27.4285L419.669 28.7913L420.954 30.1008L422.239 31.3485L423.524 32.5272L424.809 33.6291L426.094 34.6479L427.379 35.577L428.664 36.4108L429.949 37.1441L431.234 37.7724L432.519 38.2918L433.804 38.6992L435.089 38.992L436.374 39.1683L437.659 39.2273L438.944 39.1683L440.229 38.992L441.514 38.6992L442.799 38.2918L444.084 37.7724L445.369 37.1441L446.654 36.4108L447.939 35.577L449.224 34.6479L450.509 33.6291L451.794 32.5272L453.079 31.3485L454.364 30.1008L455.649 28.7913L456.934 27.4285L458.219 26.0204L459.504 24.576L460.789 23.1041L462.074 21.6138L463.359 20.1142L464.644 18.6145L465.929 17.1242L467.214 15.6523L468.499 14.2079L469.784 12.7999L471.069 11.437L472.354 10.1275L473.639 8.87978L474.924 7.70113L476.209 6.59919L477.494 5.58042L478.779 4.65136L480.064 3.81755L481.349 3.08424L482.634 2.45593L483.919 1.93651L485.204 1.52914L486.489 1.23634L487.774 1.06001L489.059 1.00104L490.344 1.06001L491.629 1.23634L492.914 1.52914L494.199 1.93651L495.484 2.45593L496.769 3.08424L498.054 3.81755L499.339 4.65136L500.624 5.58042L501.909 6.59919L503.194 7.70113L504.479 8.87978L505.764 10.1275L507.049 11.437L508.334 12.7999L509.619 14.2079L510.904 15.6523L512.189 17.1242L513.474 18.6145L514.759 20.1142" stroke="url(#paint0_linear_30_756)" stroke-width="2"/>
<defs>
<linearGradient id="paint0_linear_30_756" x1="0.759338" y1="1.00104" x2="514.759" y2="1.00104" gradientUnits="userSpaceOnUse">
<stop stop-color="#002687"/>
<stop offset="0.677885" stop-color="#AD83B9"/>
</linearGradient>
</defs>
</svg>
