<svg width="764" height="489" viewBox="0 0 764 489" fill="none" xmlns="http://www.w3.org/2000/svg">
<path opacity="0.0526316" d="M703.893 375.45C687.79 392.363 636.322 420.665 559.277 398.568C462.97 370.948 425.723 297.734 339.769 259.771C276.327 231.752 105.859 189.694 7.8364 236.169" stroke="#7B7BC2" stroke-width="1.45842"/>
<path opacity="0.105263" d="M719.777 339.994C706.001 358.143 658.563 390.536 579.014 374.919C479.578 355.397 432.84 285.657 342.33 254.995C275.526 232.365 100.422 204.603 9.09086 258.912" stroke="#7B7BC2" stroke-width="1.45842"/>
<path opacity="0.157895" d="M731.776 304.061C720.479 323.247 677.59 359.377 596.409 350.409C494.933 339.199 439.217 273.699 345.143 250.673C275.708 233.679 97.8879 220.519 14.2478 282.067" stroke="#7B7BC2" stroke-width="1.45842"/>
<path opacity="0.210526" d="M739.85 267.971C731.155 287.985 693.285 327.456 611.361 325.236C508.956 322.461 444.873 261.917 348.265 246.781C276.961 235.609 98.372 237.195 23.3397 305.307" stroke="#7B7BC2" stroke-width="1.45842"/>
<path opacity="0.263158" d="M743.998 232.051C738.001 252.672 705.565 295.053 623.796 299.605C521.585 305.296 449.836 250.371 351.753 243.289C279.36 238.063 101.959 254.376 36.357 328.307" stroke="#7B7BC2" stroke-width="1.45842"/>
<path opacity="0.315789" d="M744.266 196.624C741.032 217.627 714.385 262.452 633.666 273.727C532.769 287.82 454.14 239.117 355.657 240.168C282.969 240.944 108.7 271.806 53.246 350.746" stroke="#7B7BC2" stroke-width="1.45842"/>
<path opacity="0.368421" d="M740.738 162.006C740.303 183.161 719.737 229.939 640.954 247.813C542.475 270.155 457.829 228.206 360.024 237.378C287.837 244.148 118.609 289.222 73.9114 372.305" stroke="#7B7BC2" stroke-width="1.45842"/>
<path opacity="0.421053" d="M733.544 128.508C735.913 149.583 721.653 197.802 645.668 222.079C550.687 252.425 460.95 217.691 364.896 234.883C294 247.572 131.668 306.364 98.216 392.68" stroke="#7B7BC2" stroke-width="1.45842"/>
<path opacity="0.473684" d="M722.852 96.4256C727.998 117.19 720.201 166.321 647.847 196.735C557.405 234.752 463.56 207.614 370.308 232.638C301.481 251.108 147.823 322.972 125.983 411.576" stroke="#7B7BC2" stroke-width="1.45842"/>
<path opacity="0.526316" d="M708.867 66.0383C716.735 86.2639 715.486 135.769 647.556 171.987C562.643 217.259 465.718 198.013 376.291 230.596C310.287 254.644 166.985 338.794 156.998 428.714" stroke="#7B7BC2" stroke-width="1.45842"/>
<path opacity="0.578947" d="M691.834 37.6097C702.336 57.0753 707.65 106.413 644.887 148.038C566.433 200.069 467.492 188.926 382.868 228.709C320.41 258.072 189.036 353.586 191.01 443.838" stroke="#7B7BC2" stroke-width="1.45842"/>
<path opacity="0.631579" d="M672.027 11.381C685.05 29.8734 696.867 78.5021 639.959 125.078C568.825 183.298 468.95 180.381 390.058 226.929C331.829 261.284 213.823 367.116 227.735 456.711" stroke="#7B7BC2" stroke-width="1.45842"/>
<path opacity="0.684211" d="M649.754 -12.432C665.153 4.88454 683.345 52.2717 632.916 103.288C569.88 167.059 470.166 172.399 397.87 225.202C344.509 264.175 241.162 379.164 266.862 467.12" stroke="#7B7BC2" stroke-width="1.45842"/>
<path opacity="0.736842" d="M625.347 -33.638C642.955 -17.6871 667.322 27.9394 623.924 82.8377C569.678 151.461 471.217 165 406.308 223.479C358.401 266.641 270.845 389.529 308.051 474.882" stroke="#7B7BC2" stroke-width="1.45842"/>
<path opacity="0.789474" d="M599.164 -52.0766C618.788 -37.666 649.062 5.6999 613.172 63.8785C568.309 136.602 472.18 158.192 415.37 221.707C373.44 268.586 302.636 398.025 350.939 479.841" stroke="#7B7BC2" stroke-width="1.45842"/>
<path opacity="0.842105" d="M571.581 -67.6147C593.005 -54.9023 628.856 -14.2722 600.865 46.5493C565.877 122.576 473.134 151.98 425.045 219.835C389.552 269.917 336.275 404.49 395.147 481.872" stroke="#7B7BC2" stroke-width="1.45842"/>
<path opacity="0.894737" d="M542.989 -80.154C565.979 -69.2791 607.013 -31.8299 587.229 30.9681C562.5 109.466 474.158 146.361 435.317 217.813C406.65 270.55 371.484 408.781 440.279 480.881" stroke="#7B7BC2" stroke-width="1.45842"/>
<path opacity="0.947368" d="M513.791 -89.6269C538.095 -80.7087 583.863 -46.8506 572.503 17.2359C558.302 97.344 475.33 141.327 446.163 215.593C424.636 270.406 407.965 410.782 485.931 476.81" stroke="#7B7BC2" stroke-width="1.45842"/>
<path d="M484.396 -96C509.748 -89.1361 559.748 -59.2402 556.936 5.43261C553.421 86.2736 476.727 136.863 457.553 213.128C443.402 269.417 445.41 410.4 531.691 469.633" stroke="#7B7BC2" stroke-width="1.45842"/>
</svg>
