<svg width="72" height="75" viewBox="0 0 72 75" fill="none" xmlns="http://www.w3.org/2000/svg">
<path d="M72 37.0223C66.5941 37.8185 61.8934 38.535 57.1927 39.3312C45.5974 41.3217 39.5648 47.5318 37.6061 59.5541C36.8227 64.4904 36.2742 69.4268 35.5691 75C34.8639 70.2229 34.2372 66.0032 33.6104 61.7834C31.1817 46.0987 24.9925 40.1274 9.47996 38.3758C6.34611 38.0573 3.21219 37.6592 0 36.8631C4.77911 35.9873 9.55826 35.3503 14.3374 34.3153C27.9696 31.449 31.1818 25.3981 33.5322 13.2166C34.394 8.9172 34.7856 4.4586 35.4124 0C36.4309 5.97134 37.3711 11.7834 38.5462 17.5955C40.5049 27.3885 46.7726 32.6433 56.1741 34.3153C61.1883 35.1911 66.2807 35.9873 72 37.0223Z" fill="#7B7BC2"/>
</svg>
